<svg id="visual" viewBox="0 0 900 600" width="900" height="600" xmlns="http://www.w3.org/2000/svg" xmlns:xlink="http://www.w3.org/1999/xlink" version="1.1"><rect x="0" y="0" width="900" height="600" fill="#001220"></rect><defs><linearGradient id="grad1_0" x1="33.3%" y1="0%" x2="100%" y2="100%"><stop offset="20%" stop-color="#001220" stop-opacity="1"></stop><stop offset="80%" stop-color="#001220" stop-opacity="1"></stop></linearGradient></defs><defs><linearGradient id="grad2_0" x1="0%" y1="0%" x2="66.7%" y2="100%"><stop offset="20%" stop-color="#001220" stop-opacity="1"></stop><stop offset="80%" stop-color="#001220" stop-opacity="1"></stop></linearGradient></defs><g transform="translate(900, 0)"><path d="M0 243.4C-11 211.6 -22.1 179.9 -40.3 176.5C-58.5 173 -83.9 197.9 -91.5 190.1C-99.2 182.3 -89.2 141.8 -107.9 135.3C-126.5 128.7 -174 155.9 -190.3 151.7C-206.6 147.5 -191.8 111.9 -184.7 88.9C-177.6 66 -178.1 55.9 -189.1 43.2C-200.2 30.5 -221.8 15.2 -243.4 0L0 0Z" fill="#FBAE3C"></path></g><g transform="translate(0, 600)"><path d="M0 -243.4C12.5 -212.6 25 -181.8 39.4 -172.6C53.8 -163.3 70.1 -175.6 83.3 -173C96.5 -170.4 106.7 -152.9 109.1 -136.8C111.5 -120.7 106.2 -106 131.3 -104.7C156.5 -103.5 212.3 -115.8 219.3 -105.6C226.3 -95.3 184.5 -62.5 180.4 -41.2C176.3 -19.8 209.8 -9.9 243.4 0L0 0Z" fill="#FBAE3C"></path></g></svg>